<?xml version="1.0" standalone="no"?>
<!DOCTYPE svg PUBLIC "-//W3C//DTD SVG 20010904//EN"
 "http://www.w3.org/TR/2001/REC-SVG-20010904/DTD/svg10.dtd">
<svg version="1.0" xmlns="http://www.w3.org/2000/svg"
 width="346.000000pt" height="385.000000pt" viewBox="0 0 346.000000 385.000000"
 preserveAspectRatio="xMidYMid meet">
<g transform="translate(0.000000,385.000000) scale(0.100000,-0.100000)"
fill="#000000" stroke="none">
<path d="M465 3812 c-106 -78 -240 -230 -315 -358 -122 -209 -143 -468 -54
-690 56 -143 170 -285 308 -384 67 -49 75 -59 76 -88 0 -26 7 -37 39 -60 l39
-27 3 -98 c4 -98 4 -99 38 -126 l34 -28 -46 -70 c-25 -38 -87 -109 -137 -157
-68 -65 -90 -93 -88 -109 3 -21 8 -22 101 -22 53 0 97 -2 97 -4 0 -3 -11 -32
-24 -65 -43 -107 -54 -265 -25 -343 11 -31 49 -30 79 2 13 14 27 25 31 25 4 0
11 -30 16 -67 9 -60 8 -75 -13 -133 -55 -159 -54 -387 3 -478 36 -58 81 -82
153 -82 39 0 67 7 97 24 l41 24 7 -25 c9 -37 47 -93 97 -143 33 -33 48 -58 57
-93 14 -57 31 -88 80 -140 45 -48 73 -63 134 -72 100 -15 201 45 252 149 l26
53 170 0 170 1 20 -39 c25 -50 81 -112 122 -138 73 -44 179 -35 250 21 48 38
78 85 104 165 15 44 32 72 60 97 22 19 55 65 73 100 l33 65 30 -21 c22 -16 50
-24 92 -26 130 -8 187 60 207 247 12 109 1 192 -44 325 -17 51 -18 68 -9 119
6 33 13 62 16 65 3 3 18 -7 33 -21 38 -37 60 -34 78 8 28 69 7 294 -36 374 -5
11 -10 21 -10 24 0 2 35 2 78 -1 78 -4 122 6 122 30 0 6 -47 56 -103 112 -64
62 -118 125 -140 164 -40 69 -44 82 -24 82 35 0 47 35 47 131 l1 94 44 27 c37
22 45 33 45 56 0 25 12 38 74 86 243 186 366 414 366 677 0 243 -112 475 -330
683 -84 80 -137 113 -164 103 -21 -8 -20 -68 0 -122 52 -135 104 -301 114
-370 21 -138 -6 -262 -75 -343 -43 -50 -151 -132 -173 -132 -10 0 -30 20 -45
45 -16 24 -37 47 -47 50 -21 7 -67 -14 -118 -53 -29 -22 -33 -31 -30 -63 l3
-37 -55 51 c-140 129 -276 202 -474 256 -42 12 -89 21 -105 21 -45 0 -69 27
-125 140 -44 90 -55 105 -76 105 -20 0 -32 -16 -81 -117 -57 -114 -59 -117
-96 -123 -234 -36 -446 -140 -610 -299 -50 -47 -66 -49 -43 -6 5 10 6 28 2 39
-10 28 -96 81 -132 81 -25 0 -35 -8 -61 -50 l-31 -50 -40 23 c-22 12 -73 54
-112 92 -94 93 -116 146 -116 283 0 104 26 219 86 377 38 102 46 132 42 168
-4 43 -33 46 -83 9z m-31 -183 c-85 -219 -107 -406 -63 -524 38 -101 127 -200
257 -285 l23 -15 -46 -98 c-25 -53 -61 -142 -79 -197 -18 -55 -35 -103 -38
-106 -8 -7 -112 78 -175 144 -29 30 -73 88 -97 130 -169 283 -139 587 89 890
41 55 155 165 162 158 2 -2 -13 -45 -33 -97z m2677 14 c147 -153 230 -313 254
-492 27 -206 -33 -409 -172 -579 -37 -46 -180 -172 -194 -172 -5 0 -13 19 -19
43 -21 81 -72 221 -106 289 -19 37 -34 69 -34 71 0 3 19 17 43 32 120 79 198
171 233 278 29 87 22 228 -19 367 -19 63 -46 145 -60 183 -32 83 -22 80 74
-20z m-1348 -420 c21 -58 21 -58 1 -78 -12 -11 -19 -13 -24 -5 -5 7 -14 5 -31
-8 -20 -17 -21 -22 -10 -36 12 -14 11 -16 -5 -16 -45 1 -45 14 -2 103 24 48
45 87 48 87 3 0 14 -21 23 -47z m67 -117 c0 -7 -11 -16 -24 -18 -28 -6 -26 18
2 25 10 3 18 5 20 6 1 0 2 -5 2 -13z m-264 -53 c-10 -43 -27 -199 -30 -288 -7
-169 -19 -326 -25 -329 -3 -2 -86 -9 -183 -16 -147 -11 -188 -11 -235 0 -122
28 -163 66 -163 150 0 27 4 39 11 35 6 -4 10 -1 8 6 -3 28 1 38 15 33 8 -3 17
0 21 6 3 6 3 10 -2 9 -22 -4 -24 3 -9 26 43 65 -31 0 -88 -77 -39 -54 -106
-186 -107 -211 0 -12 -3 -16 -6 -9 -8 19 -23 14 -23 -8 0 -11 -4 -20 -10 -20
-16 0 -12 15 11 44 11 14 17 30 14 36 -9 15 68 164 126 242 87 116 218 227
349 293 99 50 255 103 309 104 20 1 23 -2 17 -26z m400 17 c8 0 14 -8 14 -17
0 -15 2 -16 10 -3 7 12 14 12 43 2 18 -7 39 -12 46 -12 28 0 200 -85 276 -136
78 -52 189 -158 253 -240 44 -57 114 -195 108 -211 -3 -8 -1 -11 4 -8 9 5 15
-15 11 -37 0 -5 3 -8 7 -8 9 0 36 -79 30 -86 -2 -2 -14 -1 -26 3 -20 5 -22 11
-19 53 3 34 1 47 -8 44 -14 -6 -47 73 -34 82 5 3 9 -3 9 -12 0 -10 3 -15 6
-11 3 3 3 15 -1 28 -6 16 -9 18 -16 8 -4 -7 -12 -10 -16 -5 -4 5 -2 11 5 13 6
3 12 9 12 15 0 6 -8 7 -17 4 -10 -4 -14 -4 -11 0 4 3 -4 17 -18 31 -13 13 -24
30 -24 38 0 8 -4 15 -8 15 -9 0 -47 62 -44 73 1 4 -1 6 -5 5 -5 -2 -22 11 -39
27 -129 127 -273 224 -354 239 -27 5 -16 -3 43 -34 87 -44 181 -127 203 -179
43 -103 -23 -237 -142 -287 -50 -21 -169 -40 -230 -36 l-51 3 -6 87 c-3 48
-13 154 -21 235 -9 82 -17 170 -17 195 -1 26 -8 62 -15 81 -15 37 -10 55 13
47 8 -3 21 -6 29 -6z m-213 -69 c29 1 62 9 75 17 l22 15 0 -327 -1 -326 -110
0 -109 0 0 213 c0 116 3 262 7 324 l6 112 29 -15 c18 -9 50 -14 81 -13z m-925
-129 l23 -18 -30 -54 c-17 -30 -28 -63 -25 -72 5 -16 -20 -65 -40 -80 -15 -10
-26 0 -26 25 -1 22 -1 22 -21 -2 -12 -15 -17 -32 -14 -45 5 -15 4 -17 -3 -8
-7 11 -11 7 -17 -15 -5 -15 -7 -32 -6 -38 2 -5 0 -7 -4 -3 -14 13 -30 -17 -60
-107 -19 -55 -31 -82 -33 -68 -2 12 2 32 9 45 6 12 18 43 25 68 29 103 58 169
132 308 24 45 49 82 55 82 7 0 22 -8 35 -18z m1924 -64 c25 -46 55 -103 66
-128 25 -56 92 -248 92 -263 0 -23 -18 9 -35 63 -23 71 -32 82 -55 70 -27 -15
-32 -12 -26 13 3 12 3 16 0 9 -3 -6 -10 -9 -15 -6 -6 3 -5 11 2 20 9 11 15 11
25 3 8 -6 11 -15 8 -20 -3 -5 1 -6 9 -3 12 4 11 11 -4 42 -11 20 -19 41 -19
48 0 6 -10 19 -21 30 -21 19 -22 19 -15 -3 5 -14 3 -23 -3 -23 -6 0 -11 7 -11
15 0 8 -4 15 -9 15 -5 0 -7 -8 -4 -19 3 -10 0 -21 -5 -25 -12 -7 -25 21 -16
35 3 5 0 8 -8 7 -9 -2 -12 6 -10 24 1 16 -11 54 -28 89 -17 33 -30 62 -28 63
2 0 12 6 23 13 11 6 25 12 31 12 6 1 31 -36 56 -81z m21 -176 c-4 -10 -8 -11
-13 -2 -6 9 -9 9 -13 -1 -4 -10 -6 -9 -6 3 -1 11 6 16 18 15 12 -1 17 -6 14
-15z m-2053 -49 c0 -26 -16 -47 -29 -39 -7 5 -7 14 1 31 13 29 28 33 28 8z
m2200 -195 c0 -7 3 -31 6 -53 4 -27 2 -35 -4 -25 -15 24 -24 90 -12 90 5 0 10
-6 10 -12z m-2156 -45 c-6 -21 -44 -40 -44 -21 0 9 42 49 47 44 1 -1 0 -11 -3
-23z m1661 -62 c213 -20 386 -44 404 -56 12 -7 22 -115 15 -153 -6 -29 -10
-32 -43 -31 -35 1 -36 1 -9 10 22 9 28 18 34 55 8 56 -6 91 -43 105 -41 16
-343 49 -448 50 -49 0 -114 3 -144 6 l-54 5 6 -53 c4 -29 12 -56 19 -61 10 -6
10 -8 1 -8 -7 0 -13 -7 -13 -15 0 -12 15 -15 74 -15 51 0 76 4 79 13 3 8 11 6
27 -8 16 -14 43 -22 94 -26 154 -13 302 -32 316 -40 20 -11 -19 -11 -85 1 -63
12 -608 39 -774 40 l-124 0 18 20 c10 12 25 18 32 16 7 -3 12 -2 11 2 -1 4 2
15 7 25 7 18 4 47 -10 81 -6 14 -5 17 3 12 8 -5 10 -1 5 10 -4 12 -8 14 -11 6
-2 -8 -8 -9 -15 -4 -40 31 -93 19 -127 -27 -29 -42 -20 -81 28 -115 l37 -26
-140 0 c-231 0 -666 -25 -787 -46 -26 -4 -38 -3 -38 5 0 6 9 11 19 11 16 0 19
6 15 43 -2 23 -1 34 2 25 3 -10 10 -18 16 -18 10 0 8 16 -8 55 -7 19 -7 19 9
3 20 -19 23 -84 5 -91 -8 -3 -6 -6 5 -6 13 -1 17 7 17 36 0 95 -35 122 -129
102 -67 -14 -83 -50 -60 -131 7 -29 15 -38 32 -39 19 0 19 -2 -6 -11 -52 -19
-59 -7 -56 87 2 46 9 89 15 95 20 20 293 55 674 84 25 2 232 2 460 1 333 -2
461 -7 645 -24z m-675 -75 c-14 -18 -20 -19 -40 -6 -12 7 -11 12 5 30 16 18
20 19 33 6 13 -12 13 -18 2 -30z m658 2 c17 -17 15 -45 -4 -52 -25 -10 -30 2
-8 18 10 8 16 18 11 22 -4 4 -7 2 -7 -4 0 -7 -7 -12 -15 -12 -8 0 -15 -5 -15
-11 0 -5 -4 -8 -9 -5 -18 11 1 56 23 56 6 0 17 -5 24 -12z m-158 -188 c225
-11 378 -25 389 -36 3 -3 6 -81 6 -172 0 -164 -1 -168 -29 -222 -61 -119 -146
-175 -261 -173 -99 2 -217 42 -268 90 -83 80 -197 101 -289 54 l-47 -24 -59
26 c-100 45 -182 30 -279 -49 -24 -20 -80 -49 -126 -66 -227 -83 -403 8 -448
234 -11 57 -3 295 11 303 12 8 192 25 345 34 211 12 812 12 1055 1z m544 -89
c56 -100 86 -140 151 -207 52 -52 69 -74 53 -69 -13 3 -32 7 -43 6 -16 0 -17
2 -5 9 11 7 7 15 -21 42 -55 51 -118 141 -141 200 -19 51 -17 59 6 19z m-2130
-91 c-23 -44 -54 -85 -81 -107 -50 -41 -55 -55 -15 -43 39 11 162 128 181 173
l16 38 -3 -79 c-4 -82 19 -225 43 -273 29 -56 107 -129 172 -161 91 -45 169
-49 276 -15 42 14 77 24 77 23 0 -1 -9 -27 -20 -58 -25 -71 -33 -129 -21 -147
5 -7 20 -13 34 -13 17 0 24 -5 20 -14 -4 -10 7 -12 45 -10 27 2 58 9 70 15 16
8 21 7 26 -4 10 -28 98 -10 203 41 54 27 54 27 91 9 69 -35 106 -44 149 -38
34 4 44 2 49 -11 9 -23 34 -20 34 4 0 23 6 24 40 5 28 -16 80 -20 80 -6 0 6
17 11 38 13 36 3 37 4 40 45 2 28 -5 63 -21 103 -14 33 -22 60 -18 60 3 0 38
-9 76 -20 121 -35 219 -20 318 49 109 75 157 190 158 381 0 76 3 108 9 93 21
-52 64 -106 132 -164 l72 -62 -38 7 c-20 4 -44 10 -52 13 -26 10 -26 -27 0
-74 69 -124 94 -223 79 -312 -7 -46 -7 -45 -15 33 -7 79 -35 176 -50 176 -7 0
-5 -24 7 -83 7 -37 -63 -30 -103 10 -22 21 -34 4 -32 -46 4 -74 2 -76 -31 -42
-17 18 -33 30 -36 27 -3 -3 0 -28 7 -57 13 -52 9 -196 -5 -219 -5 -8 -17 6
-32 36 -45 90 -72 101 -73 31 0 -15 -14 -60 -30 -100 -28 -66 -47 -96 -107
-166 l-22 -26 -1 27 c0 59 -78 216 -100 203 -5 -3 -11 -20 -15 -38 -12 -61
-86 -193 -144 -258 l-58 -63 -6 46 c-7 48 -44 167 -57 181 -4 5 -20 -15 -35
-45 -42 -83 -215 -282 -241 -276 -26 6 -216 202 -239 247 -13 25 -30 55 -38
65 -14 19 -16 17 -42 -34 -19 -38 -27 -70 -28 -112 -1 -32 -4 -58 -7 -58 -6 0
-130 120 -147 142 -25 34 -51 91 -69 153 -10 36 -23 64 -29 62 -20 -6 -57 -98
-62 -157 l-6 -61 -18 31 c-10 16 -23 30 -29 30 -16 0 -100 177 -107 225 -7 52
-25 59 -48 18 -8 -16 -24 -39 -35 -52 -29 -34 -40 -15 -40 68 l0 64 -21 -27
c-11 -14 -25 -23 -31 -20 -9 6 -7 73 2 119 5 24 -1 75 -9 75 -19 0 -137 -116
-146 -144 -5 -16 -16 -32 -24 -34 -12 -4 -13 11 -7 86 8 105 32 184 82 265 47
77 40 84 -64 63 -43 -9 -87 -16 -96 -16 -12 0 9 28 62 86 44 47 95 112 113
144 47 80 49 47 3 -40z m1000 -335 c17 -8 43 -22 59 -32 22 -15 30 -16 45 -5
9 7 41 24 70 38 53 26 54 26 104 9 28 -9 67 -28 85 -42 53 -40 127 -203 92
-203 -11 0 -47 16 -157 69 -26 13 -36 13 -52 4 -16 -11 -29 -7 -85 22 -36 19
-74 35 -84 35 -11 0 -50 -16 -87 -36 -41 -22 -70 -32 -72 -25 -6 18 -29 13
-116 -29 -46 -22 -86 -40 -90 -40 -12 0 -6 39 15 94 27 69 77 120 143 146 52
20 77 19 130 -5z m1192 -186 c4 -7 0 -9 -13 -5 -30 10 -39 -9 -52 -117 -7 -55
-19 -122 -28 -150 -15 -51 -57 -127 -71 -127 -10 0 -45 125 -40 142 3 7 16 -9
30 -36 25 -50 25 -50 38 -25 21 39 60 200 60 251 0 50 18 78 50 78 10 0 22 -5
26 -11z m-2115 -214 c12 -44 29 -94 40 -111 22 -36 25 -68 7 -62 -20 7 -64
103 -77 165 -6 31 -10 86 -10 122 l1 66 10 -50 c5 -27 18 -86 29 -130z m93
-89 c-9 -26 -19 -45 -22 -42 -2 3 3 26 13 51 22 60 30 53 9 -9z m196 -171 c11
-12 20 -25 20 -30 0 -4 12 -23 26 -42 14 -18 24 -41 22 -50 -7 -34 -113 140
-149 246 -31 88 -22 82 21 -13 22 -49 49 -99 60 -111z m1478 50 c-41 -81 -105
-174 -120 -175 -8 0 27 60 89 155 18 27 41 70 50 95 11 27 19 38 21 28 2 -9
-16 -55 -40 -103z m-1822 22 c-3 -18 -8 -53 -11 -79 -7 -51 -25 -66 -25 -21 0
44 23 142 32 137 5 -3 6 -20 4 -37z m2143 -19 c6 -26 11 -68 10 -95 l0 -48
-13 41 c-15 48 -28 170 -17 158 5 -5 13 -30 20 -56z m-634 -165 c-52 -65 -127
-143 -138 -143 -5 0 15 25 45 55 31 30 70 74 89 99 19 24 36 42 38 40 2 -2
-13 -25 -34 -51z m-755 -144 c0 -19 -17 -7 -61 44 -79 91 -86 115 -11 38 40
-40 72 -77 72 -82z m-706 80 c27 -5 70 -9 96 -9 l47 0 7 -42 c7 -40 5 -45 -28
-75 -67 -62 -160 -36 -190 53 -22 65 -21 98 2 89 9 -3 39 -11 66 -16z m2096
-28 c0 -95 -98 -159 -179 -117 -45 24 -54 41 -47 91 l7 45 62 1 c34 0 80 4
102 8 22 5 43 9 48 10 4 0 7 -16 7 -38z m-1620 -406 c33 -9 100 -15 168 -15
l113 0 -17 -32 c-35 -68 -95 -102 -169 -96 -59 5 -92 26 -129 83 -21 32 -35
75 -23 75 1 0 27 -7 57 -15z m1130 5 c0 -23 -41 -89 -70 -113 -52 -44 -146
-48 -200 -9 -26 19 -70 78 -70 93 0 5 51 9 113 10 64 0 129 6 152 14 50 16 75
18 75 5z"/>
<path d="M1001 2736 c-8 -10 -9 -16 -1 -21 5 -3 10 -3 10 1 0 3 8 0 18 -7 16
-13 16 -13 -1 7 -9 11 -14 24 -10 27 3 4 4 7 1 7 -3 0 -11 -6 -17 -14z"/>
<path d="M1724 2923 c-12 -2 -32 -15 -44 -28 -20 -22 -22 -28 -12 -66 6 -24 8
-47 5 -52 -3 -6 -1 -7 4 -4 6 4 16 0 23 -8 11 -13 10 -14 -3 -10 -8 4 -18 2
-22 -4 -4 -7 0 -8 11 -4 12 5 15 3 9 -6 -6 -10 -3 -11 15 -1 12 6 28 9 36 6 8
-3 14 0 14 7 0 8 4 7 10 -3 8 -12 10 -12 16 3 3 9 9 15 13 12 4 -2 8 1 9 8 1
7 6 38 10 69 4 31 5 55 2 53 -4 -2 -19 5 -36 16 -16 10 -31 18 -34 18 -3 -1
-15 -4 -26 -6z m30 -52 c10 -15 -18 -41 -33 -32 -12 8 -12 12 -2 25 15 18 27
20 35 7z"/>
<path d="M1735 2632 c-36 -4 -67 -41 -66 -80 2 -46 4 -61 10 -60 3 1 19 -4 35
-11 21 -8 38 -9 58 -2 16 6 36 7 46 4 13 -5 14 -3 5 7 -6 7 -9 27 -6 46 11 69
-18 103 -82 96z m15 -55 c0 -8 -3 -17 -7 -20 -9 -9 -34 13 -27 24 8 14 34 11
34 -4z"/>
<path d="M1656 2437 c-9 -33 -7 -47 6 -47 6 0 9 3 5 6 -3 3 -2 17 3 30 5 13 5
26 1 29 -5 2 -11 -5 -15 -18z"/>
<path d="M753 2684 c-20 -21 -16 -42 3 -22 9 9 15 21 13 26 -2 6 -9 4 -16 -4z"/>
<path d="M1270 2259 c0 -6 -8 -8 -19 -4 -19 6 -19 5 -3 -27 l17 -33 3 28 c2
16 9 27 18 27 8 0 12 5 9 10 -8 13 -25 13 -25 -1z"/>
<path d="M1478 2258 c-3 -7 -2 -22 3 -33 6 -17 8 -15 9 10 1 26 3 27 10 10 7
-17 9 -17 9 -2 1 13 10 17 37 17 27 0 42 -8 66 -32 l31 -33 -20 35 c-18 33
-22 35 -80 38 -43 2 -62 -1 -65 -10z"/>
<path d="M1031 2241 c-11 -11 -22 -17 -25 -13 -3 3 -6 -2 -6 -11 0 -9 -7 -17
-15 -17 -9 0 -15 9 -15 25 0 27 -4 28 -35 15 -19 -8 -19 -9 3 -9 12 -1 22 -5
22 -10 0 -5 3 -16 6 -25 5 -12 0 -16 -17 -16 -29 0 -20 -9 16 -16 19 -3 24 -1
19 7 -5 8 -3 9 5 4 9 -5 10 -10 2 -18 -6 -6 -11 -20 -11 -31 0 -20 0 -20 14 0
13 17 15 18 21 2 8 -20 63 -33 98 -24 12 3 31 14 42 24 16 14 30 17 65 13 l45
-5 -40 -7 c-29 -4 -14 -7 53 -8 55 0 92 3 92 9 0 14 28 12 33 -2 7 -24 62 4
64 32 1 14 0 18 -3 10 -4 -8 -13 -20 -21 -27 -23 -18 -41 6 -45 58 l-3 44 -16
-35 c-9 -20 -25 -44 -35 -55 -17 -17 -17 -18 -1 -12 9 3 17 2 17 -3 0 -6 -21
-10 -47 -9 -36 0 -43 3 -28 9 15 6 8 9 -28 9 -31 1 -46 5 -42 11 4 6 -2 28
-14 49 -11 22 -17 42 -14 45 4 3 -26 6 -65 6 -58 0 -76 -4 -91 -19z m67 -30
c8 -4 12 -19 10 -32 -4 -30 -51 -35 -56 -6 -8 39 15 58 46 38z"/>
<path d="M890 2230 c0 -11 48 -25 57 -16 4 3 -3 6 -15 6 -12 0 -22 5 -22 10 0
6 -4 10 -10 10 -5 0 -10 -4 -10 -10z"/>
<path d="M861 2199 c12 -7 12 -9 -1 -9 -13 0 -13 -1 0 -10 8 -5 22 -9 30 -9
10 0 8 3 -5 9 -16 7 -12 9 19 9 49 1 44 7 -13 14 -29 4 -40 2 -30 -4z"/>
<path d="M1480 2173 c0 -12 28 -38 34 -32 2 2 -5 13 -15 23 -11 11 -19 15 -19
9z"/>
<path d="M1293 2163 c9 -2 25 -2 35 0 9 3 1 5 -18 5 -19 0 -27 -2 -17 -5z"/>
<path d="M1119 1920 c-68 -36 -119 -115 -119 -185 0 -28 43 -116 66 -137 11
-10 36 -24 57 -33 159 -66 321 103 248 260 -45 99 -162 143 -252 95z m77 -75
c41 -63 -57 -135 -100 -73 -21 30 -20 54 4 78 28 28 76 26 96 -5z m108 -169
c9 -13 7 -20 -7 -31 -35 -26 -66 12 -35 43 15 15 28 11 42 -12z"/>
<path d="M2220 1924 c-81 -35 -124 -107 -118 -195 7 -99 76 -169 175 -177 216
-18 283 288 81 373 -47 19 -93 19 -138 -1z m62 -71 c37 -34 10 -103 -42 -103
-36 0 -60 23 -60 57 0 55 62 83 102 46z m117 -170 c13 -25 -4 -53 -29 -46 -22
6 -28 48 -7 56 21 9 26 8 36 -10z"/>
<path d="M702 1490 c-23 -21 -58 -88 -50 -95 5 -6 62 72 71 98 8 22 6 21 -21
-3z"/>
</g>
</svg>
